{
    "asset" : {
        "generator" : "Khronos glTF Blender I/O v3.4.50",
        "version" : "2.0"
    },
    "scene" : 0,
    "scenes" : [
        {
            "name" : "Scene",
            "nodes" : [
                0,
                1,
                2
            ]
        }
    ],
    "nodes" : [
        {
            "mesh" : 0,
            "name" : "body"
        },
        {
            "mesh" : 1,
            "name" : "eyes",
            "scale" : [
                0.7642893195152283,
                0.7642893195152283,
                0.3260768949985504
            ]
        },
        {
            "name" : "mouth",
            "rotation" : [
                -0.090031698346138,
                0,
                0,
                0.9959388971328735
            ],
            "scale" : [
                0.10176502168178558,
                0.10176502168178558,
                0.10176502168178558
            ],
            "translation" : [
                0,
                0,
                0.9914902448654175
            ]
        }
    ],
    "materials" : [
        {
            "doubleSided" : true,
            "name" : "Octoplushy",
            "pbrMetallicRoughness" : {
                "baseColorTexture" : {
                    "index" : 0
                },
                "metallicFactor" : 0,
                "roughnessFactor" : 0.5
            }
        },
        {
            "doubleSided" : true,
            "name" : "Plastic",
            "pbrMetallicRoughness" : {
                "baseColorFactor" : [
                    0,
                    0,
                    0,
                    1
                ],
                "metallicFactor" : 0,
                "roughnessFactor" : 0.10000000149011612
            }
        }
    ],
    "meshes" : [
        {
            "name" : "Cube.001",
            "primitives" : [
                {
                    "attributes" : {
                        "POSITION" : 0,
                        "TEXCOORD_0" : 1,
                        "NORMAL" : 2
                    },
                    "indices" : 3,
                    "material" : 0
                }
            ]
        },
        {
            "name" : "Cube.002",
            "primitives" : [
                {
                    "attributes" : {
                        "POSITION" : 4,
                        "TEXCOORD_0" : 5,
                        "NORMAL" : 6
                    },
                    "indices" : 7,
                    "material" : 1
                }
            ]
        }
    ],
    "textures" : [
        {
            "sampler" : 0,
            "source" : 0
        }
    ],
    "images" : [
        {
            "bufferView" : 4,
            "mimeType" : "image/png",
            "name" : "body Base Color"
        }
    ],
    "accessors" : [
        {
            "bufferView" : 0,
            "componentType" : 5126,
            "count" : 31572,
            "max" : [
                1.2566142082214355,
                0.9895470142364502,
                1.2566142082214355
            ],
            "min" : [
                -1.2566142082214355,
                -0.8644078373908997,
                -1.2566142082214355
            ],
            "type" : "VEC3"
        },
        {
            "bufferView" : 1,
            "componentType" : 5126,
            "count" : 31572,
            "type" : "VEC2"
        },
        {
            "bufferView" : 2,
            "componentType" : 5126,
            "count" : 31572,
            "type" : "VEC3"
        },
        {
            "bufferView" : 3,
            "componentType" : 5123,
            "count" : 178176,
            "type" : "SCALAR"
        },
        {
            "bufferView" : 5,
            "componentType" : 5126,
            "count" : 14,
            "max" : [
                -0.009862825274467468,
                0.8158599138259888,
                3.46708083152771
            ],
            "min" : [
                -0.8276767730712891,
                0.005851566791534424,
                1.6632980108261108
            ],
            "type" : "VEC3"
        },
        {
            "bufferView" : 6,
            "componentType" : 5126,
            "count" : 14,
            "type" : "VEC2"
        },
        {
            "bufferView" : 7,
            "componentType" : 5126,
            "count" : 14,
            "type" : "VEC3"
        },
        {
            "bufferView" : 8,
            "componentType" : 5123,
            "count" : 36,
            "type" : "SCALAR"
        }
    ],
    "bufferViews" : [
        {
            "buffer" : 0,
            "byteLength" : 378864,
            "byteOffset" : 0,
            "target" : 34962
        },
        {
            "buffer" : 0,
            "byteLength" : 252576,
            "byteOffset" : 378864,
            "target" : 34962
        },
        {
            "buffer" : 0,
            "byteLength" : 378864,
            "byteOffset" : 631440,
            "target" : 34962
        },
        {
            "buffer" : 0,
            "byteLength" : 356352,
            "byteOffset" : 1010304,
            "target" : 34963
        },
        {
            "buffer" : 0,
            "byteLength" : 78144,
            "byteOffset" : 1366656
        },
        {
            "buffer" : 0,
            "byteLength" : 168,
            "byteOffset" : 1444800,
            "target" : 34962
        },
        {
            "buffer" : 0,
            "byteLength" : 112,
            "byteOffset" : 1444968,
            "target" : 34962
        },
        {
            "buffer" : 0,
            "byteLength" : 168,
            "byteOffset" : 1445080,
            "target" : 34962
        },
        {
            "buffer" : 0,
            "byteLength" : 72,
            "byteOffset" : 1445248,
            "target" : 34963
        }
    ],
    "samplers" : [
        {
            "magFilter" : 9729,
            "minFilter" : 9987
        }
    ],
    "buffers" : [
        {
            "byteLength" : 1445320,
            "uri" : "data:application/octet-stream;base64,"
        }
    ]
}
